<svg width="36" height="40" viewBox="0 0 36 40" fill="none" xmlns="http://www.w3.org/2000/svg">
<path d="M28.6667 13.3778C28.6667 10.3602 27.5429 7.46622 25.5424 5.33248C23.542 3.19872 20.829 2 18 2C15.171 2 12.4579 3.19872 10.4575 5.33248C8.45714 7.46622 7.33333 10.3602 7.33333 13.3778C7.33333 26.6519 2 30.4444 2 30.4444H34C34 30.4444 28.6667 26.6519 28.6667 13.3778Z" stroke="black" stroke-width="4" stroke-linecap="round" stroke-linejoin="round"/>
<path d="M21.0755 35.7778C20.763 36.3166 20.3145 36.7639 19.7746 37.0747C19.2348 37.3856 18.6229 37.5493 18 37.5493C17.3771 37.5493 16.7651 37.3856 16.2254 37.0747C15.6857 36.7639 15.237 36.3166 14.9244 35.7778" stroke="black" stroke-width="4" stroke-linecap="round" stroke-linejoin="round"/>
</svg>
