<svg width="24" height="22" viewBox="0 0 24 22" fill="none" xmlns="http://www.w3.org/2000/svg">
<path d="M11.5245 1.08156C11.6741 0.620903 12.3259 0.620903 12.4755 1.08156L14.4432 7.13729C14.644 7.75532 15.2199 8.17376 15.8697 8.17376H22.2371C22.7215 8.17376 22.9229 8.79357 22.531 9.07827L17.3797 12.8209C16.854 13.2029 16.634 13.8799 16.8348 14.498L18.8024 20.5537C18.9521 21.0143 18.4248 21.3974 18.033 21.1127L12.8817 17.3701C12.3559 16.9881 11.6441 16.9881 11.1183 17.3701L5.96701 21.1127C5.57515 21.3974 5.04791 21.0144 5.19759 20.5537L7.16522 14.498C7.36603 13.8799 7.14604 13.2029 6.62031 12.8209L1.469 9.07827C1.07714 8.79357 1.27853 8.17376 1.76289 8.17376H8.13026C8.7801 8.17376 9.35604 7.75532 9.55685 7.13729L11.5245 1.08156Z" fill="#FFDF00" stroke="#FFDF00"/>
</svg>
