<svg width="24" height="24" viewBox="0 0 24 24" fill="none" xmlns="http://www.w3.org/2000/svg">
<path d="M4.41999 20.5792C4.13948 20.5787 3.87206 20.4604 3.68299 20.2532C3.49044 20.0476 3.39476 19.7697 3.41999 19.4892L3.66499 16.7951L14.983 5.48115L18.52 9.01715L7.20499 20.3302L4.51099 20.5752C4.47999 20.5782 4.44899 20.5792 4.41999 20.5792ZM19.226 8.31015L15.69 4.77415L17.811 2.65315C17.9986 2.46537 18.2531 2.35986 18.5185 2.35986C18.7839 2.35986 19.0384 2.46537 19.226 2.65315L21.347 4.77415C21.5348 4.96172 21.6403 5.21624 21.6403 5.48165C21.6403 5.74706 21.5348 6.00158 21.347 6.18915L19.227 8.30915L19.226 8.31015Z" fill="#415A77"/>
</svg>
