<svg width="34" height="34" viewBox="0 0 34 34" fill="none" xmlns="http://www.w3.org/2000/svg">
<path d="M2 2L32 32" stroke="black" stroke-width="3.66321" stroke-linecap="round" stroke-linejoin="round"/>
<path d="M14.5 14.7952C13.9813 15.3827 13.6666 16.1547 13.6666 17C13.6666 18.8408 15.159 20.3333 17 20.3333C17.8453 20.3333 18.6171 20.0187 19.2048 19.5" stroke="black" stroke-width="3.66321" stroke-linecap="round" stroke-linejoin="round"/>
<path d="M9.26975 9.60193C6.4667 11.5662 4.13157 14.3648 2 17.0001C5.1476 21.9851 10.8028 27.0001 17 27.0001C19.5832 27.0001 22.0723 26.1288 24.3248 24.7514" stroke="black" stroke-width="3.66321" stroke-linecap="round" stroke-linejoin="round"/>
<path d="M17 7C23.6807 7 28.1692 12.2637 32 17C31.4692 17.8405 30.8672 18.682 30.2033 19.5" stroke="black" stroke-width="3.66321" stroke-linecap="round" stroke-linejoin="round"/>
</svg>
