<svg width="24" height="25" viewBox="0 0 24 25" fill="none" xmlns="http://www.w3.org/2000/svg">
<path d="M12 22.4211C9.34711 22.4235 6.80218 21.3707 4.9263 19.4948C3.05042 17.6189 1.99762 15.074 2 12.4211V12.2211C2.08179 8.21331 4.5478 4.64124 8.26637 3.14415C11.9849 1.64705 16.2381 2.51398 19.074 5.34709C21.9365 8.20717 22.7932 12.5104 21.2443 16.2487C19.6955 19.987 16.0465 22.4235 12 22.4211ZM12 13.8311L14.59 16.4211L16 15.0111L13.41 12.4211L16 9.83109L14.59 8.42109L12 11.0111L9.41001 8.42109L8.00001 9.83109L10.59 12.4211L8.00001 15.0111L9.41001 16.4211L12 13.8321V13.8311Z" fill="#A0A0A0"/>
</svg>
