<svg width="62" height="63" viewBox="0 0 62 63" fill="none" xmlns="http://www.w3.org/2000/svg">
<path d="M31.4345 2.42383C15.6852 2.42383 2.91788 15.4076 2.91788 31.4238C2.91788 47.4399 15.6852 60.4238 31.4345 60.4238C47.1837 60.4238 59.9512 47.4399 59.9512 31.4238C59.9512 15.4076 47.1837 2.42383 31.4345 2.42383Z" stroke="black" stroke-width="4" stroke-linecap="round" stroke-linejoin="round"/>
<path d="M9.39401 49.8263C9.39401 49.8263 15.7504 41.5737 31.4345 41.5737C47.1187 41.5737 53.4754 49.8263 53.4754 49.8263" stroke="black" stroke-width="4" stroke-linecap="round" stroke-linejoin="round"/>
<path d="M31.4346 31.4234C36.1595 31.4234 39.9896 27.5284 39.9896 22.7234C39.9896 17.9186 36.1595 14.0234 31.4346 14.0234C26.7097 14.0234 22.8796 17.9186 22.8796 22.7234C22.8796 27.5284 26.7097 31.4234 31.4346 31.4234Z" stroke="black" stroke-width="4" stroke-linecap="round" stroke-linejoin="round"/>
</svg>
