<svg width="36" height="36" viewBox="0 0 36 36" fill="none" xmlns="http://www.w3.org/2000/svg">
<path d="M18 2C9.16344 2 2 9.16344 2 18C2 26.8365 9.16344 34 18 34C26.8365 34 34 26.8365 34 18C34 9.16344 26.8365 2 18 2Z" stroke="black" stroke-width="4" stroke-linecap="round" stroke-linejoin="round"/>
<path d="M5.63361 28.1531C5.63361 28.1531 9.20004 23.6 18 23.6C26.8 23.6 30.3666 28.1531 30.3666 28.1531" stroke="black" stroke-width="4" stroke-linecap="round" stroke-linejoin="round"/>
<path d="M18 18C20.6511 18 22.8 15.8511 22.8 13.2C22.8 10.5491 20.6511 8.40002 18 8.40002C15.349 8.40002 13.2 10.5491 13.2 13.2C13.2 15.8511 15.349 18 18 18Z" stroke="black" stroke-width="4" stroke-linecap="round" stroke-linejoin="round"/>
</svg>
