<svg width="20" height="18" viewBox="0 0 20 18" fill="none" xmlns="http://www.w3.org/2000/svg">
<path d="M9.37748 0.958513C9.52716 0.497857 10.1789 0.497859 10.3285 0.958512L11.8471 5.63227C12.0479 6.25031 12.6239 6.66875 13.2737 6.66875H18.188C18.6724 6.66875 18.8738 7.28856 18.4819 7.57326L14.5062 10.4618C13.9804 10.8438 13.7604 11.5208 13.9613 12.1389L15.4798 16.8126C15.6295 17.2733 15.1023 17.6563 14.7104 17.3716L10.7347 14.4831C10.209 14.1011 9.49707 14.1011 8.97133 14.4831L4.9956 17.3716C4.60374 17.6563 4.0765 17.2733 4.22617 16.8126L5.74477 12.1389C5.94558 11.5208 5.7256 10.8438 5.19986 10.4618L1.22413 7.57326C0.832269 7.28856 1.03366 6.66875 1.51802 6.66875H6.4323C7.08214 6.66875 7.65808 6.25031 7.85889 5.63227L9.37748 0.958513Z" fill="#FFDF00" stroke="#FFDF00"/>
</svg>
