<svg width="25" height="20" viewBox="0 0 25 20" fill="none" xmlns="http://www.w3.org/2000/svg">
<path d="M1 18.7728V17.7273C1 13.6856 4.27647 10.4091 8.31818 10.4091C12.3599 10.4091 15.6364 13.6856 15.6364 17.7273V18.7728" stroke="black" stroke-width="2" stroke-linecap="round"/>
<path d="M13.5457 12.5C13.5457 9.61306 15.886 7.27271 18.7729 7.27271C21.6598 7.27271 24.0002 9.61306 24.0002 12.5V13.0227" stroke="black" stroke-width="2" stroke-linecap="round"/>
<path d="M8.31829 10.4091C10.6278 10.4091 12.5001 8.5368 12.5001 6.22729C12.5001 3.91773 10.6278 2.04547 8.31829 2.04547C6.00874 2.04547 4.13647 3.91773 4.13647 6.22729C4.13647 8.5368 6.00874 10.4091 8.31829 10.4091Z" stroke="black" stroke-width="2" stroke-linecap="round" stroke-linejoin="round"/>
<path d="M18.7728 7.27273C20.5051 7.27273 21.9092 5.86852 21.9092 4.13636C21.9092 2.4042 20.5051 1 18.7728 1C17.0406 1 15.6365 2.4042 15.6365 4.13636C15.6365 5.86852 17.0406 7.27273 18.7728 7.27273Z" stroke="black" stroke-width="2" stroke-linecap="round" stroke-linejoin="round"/>
</svg>
